<svg width="960" height="240" viewBox="0 0 960 240" fill="none" xmlns="http://www.w3.org/2000/svg">
  <defs>
    <linearGradient id="bg" x1="0" y1="0" x2="960" y2="240" gradientUnits="userSpaceOnUse">
      <stop stop-color="#0B132B"/>
      <stop offset="1" stop-color="#1C2541"/>
    </linearGradient>
    <linearGradient id="accent" x1="0" y1="0" x2="1" y2="1">
      <stop stop-color="#22D3EE"/>
      <stop offset="1" stop-color="#8B5CF6"/>
    </linearGradient>
  </defs>

  <rect width="960" height="240" rx="20" fill="url(#bg)"/>

  <!-- Router icon -->
  <g transform="translate(44,52)">
    <circle cx="60" cy="68" r="56" fill="#0F172A" stroke="#334155" stroke-width="2"/>
    <circle cx="60" cy="68" r="8" fill="#E2E8F0"/>
    <circle cx="18" cy="28" r="8" fill="#22C55E"/>
    <circle cx="102" cy="28" r="8" fill="#38BDF8"/>
    <circle cx="18" cy="108" r="8" fill="#F59E0B"/>
    <circle cx="102" cy="108" r="8" fill="#A78BFA"/>
    <path d="M60 68L18 28M60 68L102 28M60 68L18 108M60 68L102 108" stroke="url(#accent)" stroke-width="3" stroke-linecap="round"/>
  </g>

  <text x="180" y="98" fill="#E2E8F0" font-family="Inter,Segoe UI,Arial,sans-serif" font-size="44" font-weight="700">
    OpenClaw Model Router
  </text>
  <text x="180" y="136" fill="#93C5FD" font-family="Inter,Segoe UI,Arial,sans-serif" font-size="20" font-weight="500">
    Prefix Routing • Time Scheduler • Verify & Rollback • Audit Log
  </text>

  <g transform="translate(180,162)">
    <rect x="0" y="0" width="110" height="30" rx="15" fill="#2563EB"/>
    <text x="55" y="20" text-anchor="middle" fill="white" font-family="Inter,Segoe UI,Arial,sans-serif" font-size="14" font-weight="700">@codex</text>
    <rect x="122" y="0" width="100" height="30" rx="15" fill="#16A34A"/>
    <text x="172" y="20" text-anchor="middle" fill="white" font-family="Inter,Segoe UI,Arial,sans-serif" font-size="14" font-weight="700">@mini</text>
    <rect x="234" y="0" width="138" height="30" rx="15" fill="#7C3AED"/>
    <text x="303" y="20" text-anchor="middle" fill="white" font-family="Inter,Segoe UI,Arial,sans-serif" font-size="14" font-weight="700">schedule apply</text>
  </g>
</svg>
